HIERARCHY
ROOT root
{
	OFFSET	0	13.1	24.9
	CHANNELS 6  Xposition Yposition Zposition Xrotation Yrotation Zrotation
	JOINT spine_1
	{
		OFFSET	0	9.99999	0
		CHANNELS 3  Xrotation Yrotation Zrotation
		JOINT spine_2
		{
			OFFSET	0	112	-10
			CHANNELS 3  Xrotation Yrotation Zrotation
			JOINT spine_3
			{
				OFFSET	0	206.5	19.3
				CHANNELS 3  Xrotation Yrotation Zrotation
				JOINT spine_4
				{
					OFFSET	0	110.4	14.6
					CHANNELS 3  Xrotation Yrotation Zrotation
					JOINT neck_1
					{
						OFFSET	0	71.8	-50.3
						CHANNELS 3  Xrotation Yrotation Zrotation
						JOINT neck_2
						{
							OFFSET	0	86.2	-25.8
							CHANNELS 3  Xrotation Yrotation Zrotation
							JOINT head_ee
							{
								OFFSET	0	179.8	-8.7
								CHANNELS 3  Xrotation Yrotation Zrotation
								End Site
								{
									OFFSET	1	0	0
								}
							}
						}
					}
					JOINT left_clavicle
					{
						OFFSET	-43.2	22.4	-70.8
						CHANNELS 3  Xrotation Yrotation Zrotation
						JOINT left_shoulder
						{
							OFFSET	-93.9	-5.79999	48.7
							CHANNELS 3  Xrotation Yrotation Zrotation
							JOINT left_elbow
							{
								OFFSET	-291.4	-30.8	15.2
								CHANNELS 3  Xrotation Yrotation Zrotation
								JOINT left_lowarm_twist
								{
									OFFSET	-110.7	-3.89999	13.6
									CHANNELS 3  Xrotation Yrotation Zrotation
									JOINT left_hand
									{
										OFFSET	-110.7	-3.89999	13.6
										CHANNELS 3  Xrotation Yrotation Zrotation
										JOINT left_ee
										{
											OFFSET	-80.8	-5.10001	12.1
											CHANNELS 3  Xrotation Yrotation Zrotation
											End Site
											{
												OFFSET	1	0	0
											}
										}
									}
								}
							}
						}
					}
					JOINT right_clavicle
					{
						OFFSET	43.2	22.4	-70.8
						CHANNELS 3  Xrotation Yrotation Zrotation
						JOINT right_shoulder
						{
							OFFSET	93.9	-5.79999	48.7
							CHANNELS 3  Xrotation Yrotation Zrotation
							JOINT right_elbow
							{
								OFFSET	291.4	-30.8	15.2
								CHANNELS 3  Xrotation Yrotation Zrotation
								JOINT right_lowarm_twist
								{
									OFFSET	110.7	-3.89999	13.6
									CHANNELS 3  Xrotation Yrotation Zrotation
									JOINT right_hand
									{
										OFFSET	110.7	-3.89999	13.6
										CHANNELS 3  Xrotation Yrotation Zrotation
										JOINT right_ee
										{
											OFFSET	80.8	-5.10001	12.1
											CHANNELS 3  Xrotation Yrotation Zrotation
											End Site
											{
												OFFSET	1	0	0
											}
										}
									}
								}
							}
						}
					}
				}
			}
		}
	}
	JOINT left_hip
	{
		OFFSET	-82.8	-127.5	0.300001
		CHANNELS 3  Xrotation Yrotation Zrotation
		JOINT left_knee
		{
			OFFSET	-28.2	-396.7	2.2
			CHANNELS 3  Xrotation Yrotation Zrotation
			JOINT left_ankle
			{
				OFFSET	-11.7	-411.3	35.4
				CHANNELS 3  Xrotation Yrotation Zrotation
				JOINT left_toes
				{
					OFFSET	0	-60	-88.6
					CHANNELS 3  Xrotation Yrotation Zrotation
					JOINT left_foot_ee
					{
						OFFSET	-22.5	-16.5	-42.2
						CHANNELS 3  Xrotation Yrotation Zrotation
						End Site
						{
							OFFSET	1	0	0
						}
					}
				}
			}
		}
	}
	JOINT right_hip
	{
		OFFSET	82.8	-127.5	0.300001
		CHANNELS 3  Xrotation Yrotation Zrotation
		JOINT right_knee
		{
			OFFSET	28.2	-396.7	2.2
			CHANNELS 3  Xrotation Yrotation Zrotation
			JOINT right_ankle
			{
				OFFSET	11.7	-411.3	35.4
				CHANNELS 3  Xrotation Yrotation Zrotation
				JOINT right_toes
				{
					OFFSET	0	-60	-88.6
					CHANNELS 3  Xrotation Yrotation Zrotation
					JOINT right_foot_ee
					{
						OFFSET	22.5	-16.5	-42.2
						CHANNELS 3  Xrotation Yrotation Zrotation
						End Site
						{
							OFFSET	1	0	0
						}
					}
				}
			}
		}
	}
}
MOTION
Frames: 12
Frame Time: 0.02
1308.95 753.147 -1047.45 -165.605 -49.3225 -173.925 2.78068 0.437945 3.02654 2.78575 0.244562 3.04824 2.79753 -0.253252 3.04753 2.78464 0.230998 3.0493 -16.7272 11.7303 -2.7592 -17.3671 24.0563 1.83381 -0.0 0.0 -0.0 -0.140694 22.0101 2.3567 -20.642 -26.016 65.2554 0.613443 -16.9032 0.0911508 -7.59421 -0.328645 0.912818 -0.966142 26.9066 5.22864 -0.0 0.0 -0.0 12.6918 26.2622 -24.9357 -10.5559 28.077 -53.8105 1.00538 26.4743 -0.236503 39.8049 0.339153 4.97264 -2.37677 -22.4754 4.80439 0.0 0.0 0.0 36.4066 3.76664 -0.168872 -53.7143 -1.56081 7.79758 18.8337 25.3789 -2.72008 -39.8307 0.0 0.0 -0.0 0.0 -0.0 25.1945 -2.31552 3.92808 -17.7995 -0.315341 -2.70232 8.99389 18.8842 1.43738 -2.18404 0.0 0.0 0.0 0.0 0.0 
1321.37 755.045 -1040.49 -163.496 -50.3451 -171.901 3.02628 0.301743 2.97618 3.0312 0.111836 2.98933 3.03545 -0.362489 2.9694 3.02317 0.110804 2.98937 -15.8674 11.383 -2.70142 -16.4098 23.3627 1.55486 -0.0 0.0 -0.0 -0.560158 22.8011 1.86508 -21.0178 -25.7565 65.9245 0.630421 -17.3433 0.0961495 -7.91107 -0.34497 0.949909 -1.18015 27.0988 4.1293 -0.0 0.0 -0.0 12.7658 25.8076 -25.159 -9.08868 29.1052 -52.6102 1.06197 27.7468 -0.262295 39.5049 0.323764 4.93751 -2.58791 -23.6308 5.42514 0.0 0.0 0.0 37.6753 2.65419 -0.334072 -51.6258 -1.36669 7.54097 17.526 28.4144 -2.59245 -40.3296 0.0 0.0 -0.0 0.0 -0.0 24.8069 -2.84443 4.29847 -16.101 -0.321688 -2.44181 11.0825 17.4124 1.73444 -2.00323 0.0 0.0 0.0 0.0 0.0 
1343.79 753.678 -1032.63 -162.157 -51.0819 -170.75 3.18915 0.205784 2.96286 3.19404 0.0169173 2.96994 3.1931 -0.445179 2.93647 3.18107 0.0239558 2.96989 -13.428 10.9301 -3.05849 -13.7774 22.7031 0.523787 -0.0 0.0 -0.0 -1.01401 23.4547 1.32638 -21.8541 -25.7308 66.6965 0.602822 -16.6268 0.088087 -7.23623 -0.310449 0.870807 -0.82632 27.0369 6.05514 -0.0 0.0 -0.0 12.4507 25.2416 -24.4975 -8.31632 29.4963 -51.5136 1.11715 28.9595 -0.288503 38.7747 0.287069 4.85163 -2.41217 -21.0059 5.76572 0.0 0.0 0.0 38.1007 5.34861 -2.22085 -47.0408 -0.974325 6.95428 13.4589 28.0565 -2.01527 -40.1588 0.0 0.0 -0.0 0.0 -0.0 24.3169 -2.71006 5.04001 -15.6345 -0.32208 -2.37024 12.6936 16.4824 1.95839 -2.13624 0.0 0.0 0.0 0.0 0.0 
1371.26 750.052 -1020.34 -162.147 -51.9056 -170.622 2.91335 0.243596 2.94863 2.91819 0.0555572 2.95815 2.91962 -0.419118 2.92886 2.90766 0.0484906 2.95827 -11.9343 10.6337 -3.23019 -12.1745 22.2318 -0.0500406 -0.0 0.0 -0.0 -1.52332 23.6637 0.661449 -22.9469 -25.726 67.578 0.659455 -18.091 0.104985 -6.64415 -0.280934 0.801081 -0.355156 26.5298 8.47852 -0.0 0.0 -0.0 12.1237 23.9677 -23.88 -7.86361 29.3029 -50.9816 1.29316 32.6418 -0.378672 37.6105 0.230846 4.71378 -2.01276 -15.4125 6.14651 0.0 0.0 0.0 38.9517 7.3413 -4.6013 -43.6214 -0.713085 6.49765 10.0651 27.869 -1.52185 -39.9981 0.0 0.0 -0.0 0.0 -0.0 23.8424 -1.00264 5.80034 -18.6487 -0.309271 -2.83248 14.725 16.235 2.24699 -1.67504 0.0 0.0 0.0 0.0 0.0 
1388.68 744.925 -1014.28 -161.542 -52.8465 -170.045 3.13296 0.221899 2.94971 3.1378 0.0338356 2.95785 3.13782 -0.429386 2.92674 3.12587 0.038016 2.95779 -9.49565 10.3935 -3.59382 -9.57937 21.9732 -0.973695 -0.0 0.0 -0.0 -1.64071 24.0475 0.561859 -23.0874 -25.6193 67.7139 0.570427 -15.779 0.0790475 -6.38099 -0.268047 0.769993 -0.620635 26.0096 6.78901 -0.0 0.0 -0.0 12.0148 23.4199 -23.6836 -7.89784 29.7368 -50.3426 1.42712 35.2565 -0.453504 37.2861 0.215682 4.67518 -1.93881 -14.3795 6.18817 0.0 0.0 0.0 40.8755 9.86186 -5.86056 -34.9387 -0.176556 5.2769 3.15202 27.979 -0.486035 -40.1148 0.0 0.0 -0.0 0.0 -0.0 22.9087 -2.86943 6.44877 -18.3114 -0.311913 -2.78079 16.3419 15.4344 2.46006 -1.08047 0.0 0.0 0.0 0.0 0.0 
1405.41 744.46 -1008.18 -161.097 -53.2545 -169.317 3.15339 0.244531 2.8884 3.15803 0.0603179 2.8981 3.15942 -0.392751 2.87202 3.14791 0.0655625 2.89798 -7.91527 10.1439 -4.11021 -7.89284 21.8255 -1.86702 -0.0 0.0 -0.0 -1.73484 23.9885 0.425144 -23.4669 -25.5721 68.0882 0.563017 -15.5841 0.0770444 -5.81063 -0.24061 0.702418 -0.514337 25.1799 7.06184 -0.0 0.0 -0.0 11.6517 21.6126 -23.0133 -8.20034 29.5875 -49.716 1.66864 39.5737 -0.60035 36.5532 0.18223 4.58765 -1.69527 -10.7245 6.3904 0.0 0.0 0.0 42.0089 11.9738 -6.82365 -30.0074 0.0437843 4.55254 -2.40396 28.7119 0.376914 -40.1029 0.0 0.0 -0.0 0.0 -0.0 22.0794 -2.02661 6.64282 -19.4553 -0.301721 -2.95601 18.0886 15.1169 2.69365 -0.105644 0.0 0.0 0.0 0.0 0.0 
1421.36 742.478 -1004.44 -160.731 -53.444 -168.794 3.11652 0.301858 2.89935 3.12119 0.116833 2.91267 3.12551 -0.340849 2.89503 3.11384 0.120444 2.91252 -7.25603 9.99099 -4.45818 -7.18509 21.7717 -2.38308 -0.0 0.0 -0.0 -1.73916 23.9111 0.406871 -23.406 -25.6776 68.7592 0.568265 -15.7222 0.0784604 -5.32945 -0.217987 0.645201 -0.444944 24.4077 7.15532 -0.0 0.0 -0.0 11.2687 20.2417 -22.2467 -8.36381 29.4546 -49.103 1.88197 42.9881 -0.741157 35.8977 0.153261 4.50901 -1.48816 -7.64231 6.48622 0.0 0.0 0.0 42.7195 13.7446 -7.04831 -25.524 0.189324 3.88004 -6.40005 29.1224 1.01312 -40.1238 0.0 0.0 -0.0 0.0 -0.0 20.6149 -1.54047 6.65065 -20.2691 -0.292343 -3.08052 19.3981 14.977 2.86665 0.67554 -0.0 -0.0 0.0 0.0 0.0 
1441.04 735.817 -1001.29 -160.363 -54.0006 -168.185 3.0908 0.327942 2.7976 3.09515 0.149331 2.81278 3.10102 -0.294246 2.80134 3.09011 0.151686 2.81265 -10.0308 9.78361 -4.17833 -10.1191 21.2287 -1.59689 -0.0 0.0 -0.0 -1.54276 23.7757 0.652272 -23.8692 -25.5283 68.789 0.565986 -15.6622 0.077844 -5.49299 -0.225622 0.664668 -0.244747 23.1959 7.84205 -0.0 0.0 -0.0 11.0291 19.3054 -21.7686 -7.25305 29.546 -49.0848 2.085 45.9202 -0.883399 35.4683 0.134774 4.45732 -1.29029 -3.25756 7.18172 0.0 0.0 0.0 43.1457 15.4093 -7.3032 -22.3406 0.260495 3.39677 -9.98731 26.1156 1.56059 -40.0571 0.0 0.0 -0.0 0.0 -0.0 22.3742 2.0204 7.25129 -26.3553 -0.166324 -4.00554 21.2205 12.9083 3.06344 1.30368 -0.0 -0.0 0.0 0.0 0.0 
1457.88 730.582 -1003.06 -160.176 -53.8968 -169.184 3.19638 0.470507 3.00773 3.20137 0.278253 3.03155 3.21431 -0.195133 3.03802 3.20155 0.286889 3.03074 -11.5546 9.63518 -4.48674 -11.7159 21.1488 -1.63607 -0.0 0.0 -0.0 0.262567 23.7111 3.09873 -25.4941 -24.347 66.3904 0.502465 -13.9775 0.061595 -4.94469 -0.200245 0.599317 -0.0375296 23.1551 9.03317 -0.0 0.0 -0.0 10.8375 18.9051 -21.3613 -6.84694 29.3449 -48.7853 2.19378 47.3739 -0.962502 34.3387 0.0879999 4.32071 -1.12997 0.124559 7.62325 0.0 0.0 0.0 43.8395 17.3581 -6.48626 -18.7846 0.308121 2.8533 -12.5641 25.0711 1.9582 -39.9386 0.0 0.0 -0.0 0.0 -0.0 21.5448 3.81908 9.10755 -27.6853 -0.12574 -4.20562 23.1121 13.0254 3.30467 1.85888 -0.0 -0.0 0.0 0.0 0.0 
1464.24 731.262 -1006.01 -158.57 -53.0371 -167.749 3.06937 0.564377 3.17058 3.07489 0.361586 3.20003 3.09335 -0.145629 3.21708 3.07909 0.36401 3.19975 -11.8019 9.55575 -3.40248 -11.9839 20.2992 -0.565427 -0.0 0.0 -0.0 1.92168 21.8533 5.26009 -26.2845 -23.6114 64.8451 0.442166 -12.3549 0.0478588 -2.54856 -0.0967393 0.311025 0.140182 23.7445 10.2842 -0.0 0.0 -0.0 10.856 19.624 -21.3552 -3.61941 27.4375 -49.3317 2.14954 46.7921 -0.930102 32.756 0.0270208 4.12783 -0.925014 3.26146 7.62169 0.0 0.0 0.0 44.0888 18.5341 -6.71282 -8.56494 0.256754 1.28816 -18.8876 22.432 2.92158 -40.134 0.0 0.0 -0.0 0.0 -0.0 24.2749 4.78535 9.09124 -30.7441 -0.0148472 -4.66189 22.4954 14.9162 3.26819 0.331794 -0.0 -0.0 0.0 0.0 0.0 
1475.09 731.521 -1006.93 -158.079 -51.9145 -167.552 3.08188 0.635011 3.2055 3.0875 0.42986 3.23936 3.11003 -0.0833264 3.26667 3.09541 0.433353 3.2389 -11.8922 9.46734 -2.8258 -12.0776 19.7624 -0.0201708 -0.0 0.0 -0.0 3.22592 20.6445 7.09401 -26.8269 -23.0048 63.6085 0.395473 -11.0844 0.038374 -0.868518 -0.0314102 0.106466 0.257763 24.146 11.1112 -0.0 0.0 -0.0 11.2973 20.3918 -22.3007 -1.61339 26.0777 -50.1491 2.10204 46.1531 -0.895659 31.5236 -0.0167552 3.97653 -0.782112 5.44221 7.60194 0.0 0.0 0.0 44.2703 19.4571 -7.1931 -1.27153 0.0502636 0.188657 -23.252 20.6533 3.57564 -40.1896 0.0 0.0 -0.0 0.0 -0.0 25.3214 5.15128 9.49862 -32.2091 0.0468686 -4.87823 22.3507 16.333 3.28312 -0.717022 0.0 0.0 0.0 0.0 0.0 
1495.78 729.475 -1005.19 -157.504 -50.3353 -167.513 2.94118 0.815089 3.28738 2.94699 0.604373 3.33251 2.98063 0.0670602 3.38615 2.96514 0.600697 3.33317 -11.5826 9.11356 -3.25556 -11.7371 19.3661 -0.593817 -0.0 0.0 -0.0 4.02266 20.0061 8.26312 -27.1543 -22.6431 62.7185 0.375475 -10.5368 0.0346231 0.444819 0.0154603 -0.054706 0.388938 24.2929 11.9263 -0.0 0.0 -0.0 11.4097 21.0628 -22.5056 -0.177965 25.4561 -50.0752 2.0822 45.8817 -0.881385 30.403 -0.0537237 3.83817 -0.688638 6.98517 7.6339 0.0 0.0 0.0 44.6251 18.6452 -6.26948 1.69399 -0.0734553 -0.249556 -24.3648 18.4034 3.71866 -39.7942 0.0 0.0 -0.0 0.0 -0.0 25.3928 5.27815 10.1234 -32.3107 0.0513555 -4.89318 21.8884 16.7832 3.23449 -1.71856 0.0 0.0 0.0 0.0 0.0 
